<svg width="100%" viewBox="0 0 125 125" fill="none" xmlns="http://www.w3.org/2000/svg">
<path fill-rule="evenodd" clip-rule="evenodd" d="M62.5 121.154C94.8936 121.154 121.154 94.8936 121.154 62.5C121.154 30.1064 94.8936 3.84615 62.5 3.84615C30.1064 3.84615 3.84615 30.1064 3.84615 62.5C3.84615 94.8936 30.1064 121.154 62.5 121.154ZM62.5 125C97.0178 125 125 97.0178 125 62.5C125 27.9822 97.0178 0 62.5 0C27.9822 0 0 27.9822 0 62.5C0 97.0178 27.9822 125 62.5 125Z" fill="white"/>
<path fill-rule="evenodd" clip-rule="evenodd" d="M60.1371 83.1395L60.7551 36.7885L64.6009 36.8398L63.9829 83.1907L73.057 74.3554C73.8179 73.6145 75.0354 73.6307 75.7764 74.3917C76.5173 75.1526 76.5011 76.3702 75.7401 77.1111L63.3396 89.1852C62.5787 89.9262 61.3612 89.9099 60.6202 89.149L48.5461 76.7485C47.8052 75.9876 47.8214 74.77 48.5824 74.0291C49.3433 73.2882 50.5608 73.3044 51.3018 74.0654L60.1371 83.1395Z" fill="white"/>
</svg>
