<svg width="100%" viewBox="0 0 125 125" fill="none" xmlns="http://www.w3.org/2000/svg">
<path fill-rule="evenodd" clip-rule="evenodd" d="M62.5 121.154C94.8936 121.154 121.154 94.8936 121.154 62.5C121.154 30.1064 94.8936 3.84615 62.5 3.84615C30.1064 3.84615 3.84615 30.1064 3.84615 62.5C3.84615 94.8936 30.1064 121.154 62.5 121.154ZM62.5 125C97.0178 125 125 97.0178 125 62.5C125 27.9822 97.0178 0 62.5 0C27.9822 0 0 27.9822 0 62.5C0 97.0178 27.9822 125 62.5 125Z" fill="#070713"/>
<path fill-rule="evenodd" clip-rule="evenodd" d="M49.6228 78.7844L81.9609 45.5723L79.2053 42.8892L46.8672 76.1012L46.6983 63.4374C46.6842 62.3754 45.8118 61.526 44.7498 61.5401C43.6878 61.5543 42.8384 62.4267 42.8525 63.4887L43.0833 80.7948C43.0974 81.8568 43.9698 82.7063 45.0318 82.6921L62.338 82.4613C63.4 82.4472 64.2494 81.5748 64.2352 80.5128C64.2211 79.4508 63.3487 78.6014 62.2867 78.6155L49.6228 78.7844Z" fill="#070713"/>
</svg>
