<svg width="100%" viewBox="0 0 106 105" fill="none" xmlns="http://www.w3.org/2000/svg">
<path fill-rule="evenodd" clip-rule="evenodd" d="M53 101.769C25.7894 101.769 3.73078 79.7106 3.73078 52.5C3.73078 25.2894 25.7894 3.23077 53 3.23077C80.2106 3.23077 102.269 25.2894 102.269 52.5C102.269 79.7106 80.2106 101.769 53 101.769ZM53 105C24.0051 105 0.5 81.4949 0.5 52.5C0.5 23.5051 24.0051 0 53 0C81.9949 0 105.5 23.5051 105.5 52.5C105.5 81.4949 81.9949 105 53 105Z" fill="#070713"/>
<path fill-rule="evenodd" clip-rule="evenodd" d="M63.8163 66.1788L36.6523 38.2807L38.9671 36.0269L66.1311 63.925L66.2729 53.2874C66.2848 52.3953 67.0176 51.6818 67.9097 51.6937C68.8018 51.7056 69.5153 52.4384 69.5034 53.3304L69.3096 67.8676C69.2977 68.7597 68.5649 69.4732 67.6728 69.4613L53.1356 69.2675C52.2436 69.2556 51.53 68.5228 51.5419 67.6307C51.5538 66.7386 52.2866 66.0251 53.1787 66.037L63.8163 66.1788Z" fill="#070713"/>
</svg>
