<svg width="100%" viewBox="0 0 23 20" fill="none" xmlns="http://www.w3.org/2000/svg">
<path d="M0 3.41085C1.8284 3.90698 3.16781 4.73385 4.01822 5.89147C4.8899 7.0491 5.38952 8.67183 5.51708 10.7597H0V20H9.82232V12C9.82232 10.5943 9.63098 9.12661 9.24829 7.5969C8.8656 6.06718 8.15338 4.74419 7.11162 3.62791C5.98481 2.42894 4.65604 1.52972 3.12528 0.930233C1.61579 0.310078 0.574032 0 0 0V3.41085Z" fill="white"/>
<path d="M13.1777 3.41085C15.0061 3.90698 16.3455 4.73385 17.1959 5.89147C18.0676 7.0491 18.5672 8.67183 18.6948 10.7597H13.1777V20H23V12C23 10.5943 22.8087 9.12661 22.426 7.5969C22.0433 6.06718 21.3311 4.74419 20.2893 3.62791C19.1625 2.42894 17.8337 1.52972 16.303 0.930233C14.7935 0.310078 13.7517 0 13.1777 0V3.41085Z" fill="white"/>
</svg>
