<svg width="100%" viewBox="0 0 73 73" fill="none" xmlns="http://www.w3.org/2000/svg">
<path fill-rule="evenodd" clip-rule="evenodd" d="M36.0172 69.8175C17.3497 69.8175 2.21671 54.6845 2.21671 36.0169C2.21671 17.3494 17.3497 2.21643 36.0172 2.21643C54.6847 2.21643 69.8178 17.3494 69.8178 36.0169C69.8178 54.6845 54.6847 69.8175 36.0172 69.8175ZM36.0172 72.0339C16.1256 72.0339 0.000282288 55.9086 0.000282288 36.0169C0.000282288 16.1253 16.1256 0 36.0172 0C55.9088 0 72.0342 16.1253 72.0342 36.0169C72.0342 55.9086 55.9088 72.0339 36.0172 72.0339Z" fill="white"/>
<path fill-rule="evenodd" clip-rule="evenodd" d="M24.3444 37.4922L51.0551 37.1361L51.0255 34.9198L24.3148 35.276L29.4063 30.0468C29.8333 29.6083 29.824 28.9067 29.3854 28.4797C28.9469 28.0528 28.2453 28.0621 27.8183 28.5006L20.8604 35.6467C20.4334 36.0852 20.4427 36.7868 20.8813 37.2138L28.0273 44.1717C28.4658 44.5987 29.1674 44.5894 29.5944 44.1508C30.0214 43.7123 30.012 43.0107 29.5735 42.5837L24.3444 37.4922Z" fill="white"/>
</svg>
