<svg width="100%" viewBox="0 0 73 73" fill="none" xmlns="http://www.w3.org/2000/svg">
<path fill-rule="evenodd" clip-rule="evenodd" d="M36.0511 72.0339C55.9427 72.0339 72.0681 55.9086 72.0681 36.0169C72.0681 16.1253 55.9427 0 36.0511 0C16.1595 0 0.0341797 16.1253 0.0341797 36.0169C0.0341797 55.9086 16.1595 72.0339 36.0511 72.0339Z" fill="#FB6B3E"/>
<path fill-rule="evenodd" clip-rule="evenodd" d="M47.724 37.4922L21.0133 37.1361L21.0428 34.9198L47.7535 35.276L42.662 30.0468C42.235 29.6083 42.2444 28.9067 42.6829 28.4797C43.1214 28.0528 43.823 28.0621 44.25 28.5006L51.208 35.6467C51.635 36.0852 51.6256 36.7868 51.1871 37.2138L44.0411 44.1717C43.6026 44.5987 42.9009 44.5894 42.474 44.1508C42.047 43.7123 42.0563 43.0107 42.4949 42.5837L47.724 37.4922Z" fill="white"/>
</svg>
