<svg width="100%" viewBox="0 0 65 67" fill="none" xmlns="http://www.w3.org/2000/svg">
<path fill-rule="evenodd" clip-rule="evenodd" d="M31.5217 67C31.5257 67 31.5297 67 31.5337 67C31.5314 66.905 31.5294 66.81 31.5278 66.715C31.5262 66.81 31.5241 66.905 31.5217 67ZM65 33.5205C65 33.5137 65 33.5068 65 33.5C65 33.4932 65 33.4863 65 33.4795C56.3741 33.6843 47.6825 30.498 41.0996 23.9206C34.86 17.6863 31.6696 9.559 31.5284 1.38888C31.3948 9.5697 28.2043 17.7099 21.9566 23.9524C15.8682 30.0358 7.97585 33.2183 0 33.5C7.97585 33.7817 15.8682 36.9642 21.9566 43.0476C28.2043 49.2901 31.3948 57.4303 31.5284 65.6111C31.6696 57.441 34.86 49.3138 41.0996 43.0794C47.6825 36.502 56.3741 33.3157 65 33.5205ZM31.5337 2.22248e-05C31.5297 1.58748e-05 31.5257 6.34994e-06 31.5217 0C31.5241 0.094976 31.5262 0.189962 31.5278 0.28495C31.5294 0.189968 31.5314 0.0949919 31.5337 2.22248e-05Z" fill="#070713"/>
</svg>
