<svg width="730" height="729" viewBox="0 0 730 729" fill="none" xmlns="http://www.w3.org/2000/svg">
<path d="M377.487 9.74441H373.87C373.656 8.70384 373.281 7.7897 372.746 7.00198C372.221 6.21426 371.579 5.55295 370.821 5.01808C370.072 4.47348 369.241 4.06504 368.326 3.79274C367.412 3.52044 366.459 3.38428 365.467 3.38428C363.658 3.38428 362.02 3.84136 360.551 4.75551C359.093 5.66966 357.93 7.01656 357.065 8.79623C356.209 10.5759 355.781 12.7592 355.781 15.346C355.781 17.9328 356.209 20.1161 357.065 21.8958C357.93 23.6754 359.093 25.0223 360.551 25.9365C362.02 26.8506 363.658 27.3077 365.467 27.3077C366.459 27.3077 367.412 27.1716 368.326 26.8993C369.241 26.627 370.072 26.2234 370.821 25.6885C371.579 25.1439 372.221 24.4777 372.746 23.69C373.281 22.8926 373.656 21.9784 373.87 20.9476L377.487 20.9476C377.215 22.4744 376.719 23.8407 375.999 25.0466C375.28 26.2525 374.385 27.2785 373.315 28.1246C372.246 28.9609 371.045 29.5979 369.712 30.0355C368.39 30.4732 366.975 30.692 365.467 30.692C362.919 30.692 360.653 30.0696 358.67 28.8248C356.686 27.58 355.125 25.81 353.987 23.515C352.849 21.2199 352.28 18.4969 352.28 15.346C352.28 12.1951 352.849 9.47211 353.987 7.17702C355.125 4.88193 356.686 3.11199 358.67 1.8672C360.653 0.622402 362.919 0 365.467 0C366.975 0 368.39 0.218808 369.712 0.656431C371.045 1.09405 372.246 1.7359 373.315 2.58197C374.385 3.41832 375.28 4.43945 375.999 5.64534C376.719 6.84151 377.215 8.20787 377.487 9.74441Z" fill="white"/>
<path d="M401.331 31.6723L405.075 2.03278L408.664 2.48619L405.322 28.9418L419.1 30.6823L418.698 33.8662L401.331 31.6723Z" fill="white"/>
<path d="M457.177 11.7418L449.747 40.6783L446.243 39.7786L453.673 10.8421L457.177 11.7418Z" fill="white"/>
<path d="M479.959 50.0419L490.957 22.2647L507.721 28.902L506.54 31.8859L493.139 26.5803L489.423 35.966L501.956 40.9279L500.774 43.9117L488.242 38.9499L484.504 48.3898L498.122 53.7812L496.94 56.7651L479.959 50.0419Z" fill="white"/>
<path d="M553.062 51.8867L538.67 78.0664L535.602 76.3798L532.636 47.9819L532.381 47.8413L521.081 68.3965L517.91 66.6537L532.303 40.4739L535.371 42.1606L538.359 70.6377L538.615 70.7783L549.943 50.172L553.062 51.8867Z" fill="white"/>
<path d="M568.2 65.5242L570.086 62.9279L588.213 76.098L586.327 78.6943L578.727 73.1724L563.053 94.7456L560.126 92.6192L575.8 71.046L568.2 65.5242Z" fill="white"/>
<path d="M646.719 147.856L644.413 145.069C645.078 144.241 645.544 143.37 645.81 142.455C646.082 141.549 646.182 140.633 646.111 139.707C646.053 138.783 645.838 137.882 645.465 137.004C645.092 136.126 644.59 135.305 643.957 134.541C642.804 133.147 641.408 132.176 639.767 131.627C638.133 131.086 636.354 131.049 634.431 131.516C632.515 131.991 630.56 133.053 628.567 134.702C626.573 136.351 625.164 138.072 624.338 139.866C623.519 141.668 623.221 143.422 623.447 145.128C623.679 146.842 624.371 148.396 625.524 149.79C626.156 150.554 626.869 151.202 627.661 151.733C628.454 152.264 629.295 152.647 630.184 152.883C631.087 153.12 632.01 153.19 632.951 153.093C633.907 152.997 634.85 152.702 635.78 152.21L638.086 154.998C636.736 155.761 635.367 156.25 633.98 156.464C632.592 156.678 631.231 156.643 629.897 156.358C628.571 156.067 627.314 155.547 626.128 154.8C624.948 154.06 623.877 153.109 622.916 151.947C621.292 149.984 620.327 147.841 620.022 145.519C619.717 143.197 620.085 140.866 621.129 138.527C622.172 136.187 623.907 134.013 626.335 132.005C628.763 129.996 631.223 128.699 633.717 128.113C636.211 127.526 638.569 127.601 640.793 128.336C643.017 129.071 644.941 130.42 646.565 132.384C647.526 133.545 648.259 134.775 648.765 136.073C649.277 137.378 649.548 138.713 649.578 140.076C649.615 141.434 649.399 142.774 648.929 144.097C648.466 145.414 647.729 146.667 646.719 147.856Z" fill="white"/>
<path d="M642.871 177.872L668.096 161.864L677.757 177.087L675.047 178.807L667.325 166.638L658.801 172.047L666.024 183.427L663.314 185.147L656.092 173.766L647.519 179.206L655.367 191.572L652.657 193.292L642.871 177.872Z" fill="white"/>
<path d="M700.929 222.333L673.898 235.053L672.407 231.886L686.7 207.168L686.575 206.904L665.351 216.891L663.811 213.618L690.843 200.898L692.333 204.066L678.013 228.861L678.137 229.125L699.414 219.113L700.929 222.333Z" fill="white"/>
<path d="M705.161 242.264L708.213 241.273L715.137 262.582L712.085 263.574L709.182 254.64L683.821 262.88L682.703 259.439L708.064 251.199L705.161 242.264Z" fill="white"/>
<path d="M691.936 292.541L721.282 286.943L723.174 296.858C723.611 299.151 723.578 301.108 723.076 302.728C722.583 304.347 721.725 305.639 720.504 306.605C719.282 307.571 717.807 308.218 716.078 308.548C714.349 308.878 712.748 308.817 711.276 308.365C709.803 307.913 708.546 307.03 707.503 305.714C706.469 304.396 705.736 302.601 705.302 300.327L703.771 292.303L706.981 291.691L708.49 299.6C708.789 301.167 709.259 302.384 709.899 303.252C710.542 304.129 711.324 304.703 712.247 304.972C713.181 305.249 714.236 305.276 715.411 305.052C716.586 304.828 717.571 304.412 718.366 303.805C719.161 303.198 719.705 302.366 719.999 301.31C720.302 300.253 720.302 298.931 719.999 297.345L718.808 291.098L692.614 296.094L691.936 292.541ZM707.754 303.839L695.949 313.576L695.162 309.449L706.989 299.827L707.754 303.839Z" fill="white"/>
<path d="M728.922 343.544L699.106 345.42L698.879 341.809L728.695 339.933L728.922 343.544Z" fill="white"/>
<path d="M718.692 399.666L718.919 396.056C719.971 395.907 720.907 395.591 721.727 395.107C722.546 394.632 723.246 394.033 723.828 393.31C724.418 392.596 724.878 391.792 725.207 390.897C725.536 390.002 725.732 389.059 725.794 388.069C725.908 386.264 725.555 384.6 724.735 383.077C723.914 381.564 722.643 380.319 720.921 379.344C719.198 378.378 717.046 377.814 714.464 377.651C711.883 377.489 709.677 377.779 707.847 378.521C706.017 379.273 704.599 380.348 703.595 381.747C702.591 383.155 702.032 384.762 701.918 386.567C701.856 387.557 701.932 388.517 702.146 389.446C702.361 390.376 702.711 391.231 703.198 392.012C703.694 392.803 704.318 393.485 705.072 394.059C705.834 394.643 706.723 395.074 707.738 395.352L707.511 398.963C706.004 398.595 704.672 398.014 703.513 397.22C702.355 396.426 701.387 395.469 700.61 394.348C699.843 393.228 699.282 391.989 698.929 390.632C698.575 389.285 698.446 387.859 698.541 386.355C698.701 383.812 699.464 381.589 700.831 379.687C702.198 377.786 704.062 376.339 706.424 375.347C708.786 374.356 711.54 373.959 714.684 374.157C717.829 374.355 720.511 375.094 722.73 376.373C724.949 377.653 726.618 379.322 727.735 381.38C728.853 383.438 729.332 385.739 729.172 388.282C729.077 389.786 728.77 391.185 728.25 392.477C727.73 393.779 727.014 394.938 726.102 395.952C725.2 396.967 724.125 397.796 722.876 398.439C721.637 399.082 720.243 399.491 718.692 399.666Z" fill="white"/>
<path d="M682.253 470.504C682.475 469.82 682.911 469.312 683.561 468.981C684.21 468.65 684.877 468.596 685.561 468.818C686.246 469.041 686.753 469.477 687.084 470.126C687.415 470.776 687.47 471.443 687.247 472.127C687.025 472.811 686.589 473.319 685.939 473.65C685.29 473.981 684.623 474.035 683.939 473.813C683.485 473.666 683.107 473.415 682.803 473.06C682.496 472.715 682.288 472.315 682.18 471.861C682.078 471.419 682.102 470.967 682.253 470.504Z" fill="white"/>
<path d="M658.038 565.87L659.977 562.815C660.97 563.192 661.942 563.366 662.894 563.336C663.841 563.315 664.743 563.128 665.601 562.774C666.462 562.433 667.252 561.95 667.972 561.324C668.692 560.698 669.318 559.967 669.849 559.129C670.818 557.602 671.31 555.973 671.325 554.244C671.335 552.522 670.821 550.819 669.782 549.135C668.738 547.459 667.124 545.927 664.939 544.541C662.755 543.155 660.683 542.347 658.722 542.116C656.755 541.893 654.995 542.152 653.442 542.894C651.883 543.644 650.619 544.783 649.65 546.31C649.118 547.148 648.723 548.025 648.463 548.943C648.203 549.861 648.098 550.779 648.148 551.698C648.202 552.63 648.42 553.529 648.804 554.395C649.191 555.273 649.762 556.079 650.518 556.812L648.579 559.867C647.436 558.819 646.548 557.668 645.916 556.414C645.283 555.161 644.896 553.855 644.755 552.499C644.622 551.147 644.728 549.792 645.072 548.433C645.411 547.081 645.985 545.769 646.792 544.497C648.158 542.345 649.897 540.766 652.011 539.758C654.125 538.75 656.456 538.38 659.004 538.649C661.551 538.918 664.155 539.897 666.815 541.585C669.476 543.274 671.47 545.213 672.798 547.404C674.126 549.594 674.784 551.86 674.772 554.202C674.76 556.544 674.072 558.791 672.706 560.942C671.899 562.215 670.956 563.293 669.878 564.175C668.794 565.065 667.609 565.735 666.321 566.185C665.042 566.64 663.7 566.849 662.297 566.81C660.901 566.777 659.482 566.463 658.038 565.87Z" fill="white"/>
<path d="M626.228 573.999L649.247 593.042L646.941 595.83L626.395 578.833L617.543 589.533L615.07 587.487L626.228 573.999Z" fill="white"/>
<path d="M613.132 631.831L592.681 610.053L595.319 607.577L615.77 629.355L613.132 631.831Z" fill="white"/>
<path d="M568.587 630.545L586.147 654.714L571.561 665.312L569.674 662.716L581.334 654.244L575.401 646.078L564.496 654L562.61 651.404L573.515 643.481L567.547 635.267L555.698 643.876L553.812 641.28L568.587 630.545Z" fill="white"/>
<path d="M527.856 691.28L513.464 665.1L516.532 663.413L542.098 676.126L542.354 675.985L531.054 655.43L534.224 653.687L548.616 679.867L545.548 681.553L519.903 668.818L519.647 668.958L530.976 689.565L527.856 691.28Z" fill="white"/>
<path d="M508.233 696.754L509.414 699.738L488.581 707.986L487.4 705.002L496.134 701.544L486.318 676.751L489.682 675.419L499.498 700.212L508.233 696.754Z" fill="white"/>
<path d="M396.645 718.932L400.235 718.479C400.577 719.484 401.063 720.344 401.693 721.059C402.312 721.775 403.032 722.35 403.852 722.786C404.663 723.232 405.539 723.533 406.48 723.689C407.421 723.844 408.384 723.86 409.368 723.736C411.162 723.509 412.731 722.85 414.073 721.759C415.406 720.669 416.39 719.187 417.026 717.313C417.652 715.44 417.802 713.221 417.478 710.654C417.154 708.088 416.456 705.976 415.384 704.317C414.302 702.66 412.98 701.469 411.418 700.745C409.847 700.022 408.164 699.774 406.369 700.001C405.385 700.125 404.457 700.38 403.584 700.765C402.711 701.149 401.937 701.654 401.261 702.278C400.577 702.914 400.023 703.655 399.601 704.502C399.17 705.361 398.913 706.315 398.83 707.364L395.241 707.817C395.32 706.269 395.641 704.851 396.204 703.564C396.767 702.278 397.526 701.148 398.481 700.174C399.437 699.21 400.549 698.428 401.816 697.827C403.073 697.227 404.45 696.832 405.945 696.643C408.473 696.324 410.799 696.658 412.923 697.644C415.048 698.63 416.818 700.191 418.235 702.325C419.651 704.459 420.557 707.09 420.952 710.216C421.347 713.342 421.123 716.114 420.282 718.534C419.441 720.954 418.114 722.905 416.302 724.389C414.49 725.872 412.32 726.774 409.792 727.093C408.296 727.282 406.865 727.243 405.498 726.974C404.122 726.707 402.85 726.221 401.682 725.515C400.516 724.82 399.5 723.919 398.635 722.813C397.771 721.716 397.108 720.423 396.645 718.932Z" fill="white"/>
<path d="M373.431 698.49V728.365H355.401V725.156H369.813V715.061H356.334V711.852H369.813V701.699H355.167V698.49H373.431Z" fill="white"/>
<path d="M304.716 724.799L308.46 695.159L311.933 695.598L325.145 720.91L325.434 720.947L328.374 697.675L331.963 698.128L328.219 727.768L324.745 727.329L311.483 701.952L311.194 701.915L308.247 725.245L304.716 724.799Z" fill="white"/>
<path d="M285.616 717.692L284.818 720.8L263.116 715.228L263.914 712.119L273.013 714.456L279.645 688.627L283.149 689.527L276.517 715.355L285.616 717.692Z" fill="white"/>
<path d="M250.255 679.586L239.257 707.363L229.871 703.647C227.701 702.788 226.067 701.712 224.968 700.419C223.865 699.136 223.234 697.719 223.073 696.17C222.912 694.621 223.156 693.029 223.804 691.392C224.452 689.755 225.361 688.437 226.531 687.436C227.701 686.435 229.121 685.846 230.791 685.671C232.458 685.504 234.367 685.847 236.519 686.699L244.114 689.706L242.911 692.744L235.424 689.78C233.941 689.193 232.662 688.937 231.586 689.013C230.501 689.086 229.597 689.439 228.875 690.074C228.141 690.714 227.553 691.59 227.113 692.702C226.673 693.815 226.496 694.869 226.582 695.865C226.669 696.862 227.079 697.767 227.814 698.581C228.544 699.403 229.66 700.112 231.161 700.706L237.075 703.048L246.891 678.254L250.255 679.586ZM232.239 686.887L230.344 671.703L234.25 673.249L236.037 688.391L232.239 686.887Z" fill="white"/>
<path d="M187.375 683.485L201.767 657.305L204.937 659.048L190.545 685.227L187.375 683.485Z" fill="white"/>
<path d="M145.469 644.776L148.396 646.903C147.958 647.87 147.723 648.83 147.693 649.782C147.655 650.728 147.785 651.64 148.085 652.519C148.37 653.399 148.803 654.218 149.382 654.976C149.962 655.734 150.653 656.404 151.455 656.987C152.919 658.05 154.513 658.644 156.239 658.767C157.956 658.885 159.688 658.479 161.434 657.547C163.173 656.611 164.802 655.096 166.323 653.003C167.843 650.91 168.78 648.893 169.134 646.95C169.48 645.001 169.331 643.228 168.688 641.631C168.038 640.029 166.981 638.696 165.517 637.633C164.715 637.05 163.864 636.599 162.964 636.282C162.064 635.965 161.155 635.803 160.234 635.796C159.301 635.791 158.39 635.952 157.502 636.281C156.6 636.612 155.76 637.131 154.981 637.839L152.054 635.713C153.172 634.638 154.377 633.824 155.668 633.271C156.959 632.719 158.285 632.414 159.648 632.359C161.005 632.311 162.351 632.502 163.686 632.931C165.014 633.354 166.287 634.009 167.507 634.895C169.568 636.392 171.035 638.228 171.909 640.401C172.782 642.574 173.004 644.923 172.576 647.449C172.147 649.975 171.007 652.512 169.155 655.061C167.303 657.61 165.242 659.479 162.973 660.667C160.703 661.855 158.4 662.369 156.063 662.21C153.727 662.051 151.528 661.223 149.466 659.725C148.247 658.839 147.231 657.83 146.418 656.699C145.597 655.562 145.003 654.336 144.635 653.023C144.261 651.718 144.137 650.366 144.264 648.967C144.385 647.576 144.787 646.18 145.469 644.776Z" fill="white"/>
<path d="M105.183 576.052C105.642 576.607 105.837 577.247 105.768 577.972C105.7 578.698 105.388 579.29 104.834 579.749C104.279 580.208 103.639 580.403 102.913 580.334C102.188 580.266 101.596 579.954 101.137 579.4C100.678 578.845 100.483 578.205 100.552 577.479C100.62 576.754 100.932 576.161 101.486 575.703C101.853 575.399 102.268 575.214 102.73 575.147C103.186 575.073 103.635 575.111 104.077 575.264C104.504 575.415 104.873 575.677 105.183 576.052Z" fill="white"/>
<path d="M37.639 504.509L39.1794 507.783C38.3289 508.419 37.6612 509.147 37.1762 509.967C36.687 510.777 36.362 511.64 36.201 512.554C36.027 513.463 36.0115 514.39 36.1543 515.333C36.2972 516.276 36.5798 517.196 37.0021 518.094C37.7723 519.73 38.8836 521.018 40.3359 521.958C41.7842 522.888 43.4977 523.367 45.4765 523.392C47.4512 523.409 49.6089 522.866 51.9495 521.765C54.2902 520.663 56.0834 519.347 57.3293 517.814C58.5711 516.274 59.295 514.649 59.5011 512.939C59.703 511.221 59.4188 509.544 58.6487 507.907C58.2263 507.01 57.6973 506.206 57.0617 505.494C56.4261 504.783 55.7069 504.203 54.9041 503.753C54.0884 503.298 53.2123 503.001 52.276 502.861C51.3267 502.717 50.3401 502.767 49.3163 503.013L47.776 499.739C49.2734 499.336 50.7209 499.203 52.1184 499.34C53.516 499.478 54.8252 499.851 56.0463 500.458C57.2585 501.07 58.3462 501.886 59.3095 502.905C60.2686 503.915 61.069 505.103 61.7108 506.466C62.7957 508.772 63.1973 511.087 62.9157 513.412C62.6341 515.737 61.6972 517.903 60.105 519.91C58.5128 521.917 56.2912 523.591 53.4402 524.932C50.5892 526.274 47.8831 526.919 45.322 526.866C42.7608 526.814 40.4948 526.155 38.5237 524.89C36.5527 523.625 35.0248 521.84 33.9399 519.534C33.2981 518.171 32.8936 516.797 32.7265 515.414C32.5552 514.022 32.6245 512.662 32.9346 511.334C33.2359 510.01 33.7789 508.766 34.5636 507.601C35.3395 506.441 36.3647 505.41 37.639 504.509Z" fill="white"/>
<path d="M47.8182 473.294L19.4053 482.526L18.2873 479.085L43.6481 470.845L39.3567 457.637L42.4089 456.645L47.8182 473.294Z" fill="white"/>
<path d="M6.00864 431.248L35.3546 425.65L36.0324 429.204L6.68652 434.802L6.00864 431.248Z" fill="white"/>
<path d="M30.9626 394.327L1.14648 396.203L0.0143663 378.209L3.21727 378.007L4.12223 392.391L14.1968 391.757L13.3505 378.305L16.5534 378.104L17.3997 391.556L27.5326 390.918L26.6129 376.301L29.8158 376.1L30.9626 394.327Z" fill="white"/>
<path d="M1.50509 327.396L31.3212 329.272L31.1014 332.766L6.66886 347.54L6.65055 347.831L30.0609 349.304L29.8337 352.915L0.0175781 351.039L0.237407 347.545L24.7318 332.716L24.7502 332.424L1.28159 330.948L1.50509 327.396Z" fill="white"/>
<path d="M7.39946 307.891L4.24707 307.29L8.44559 285.281L11.598 285.882L9.83767 295.11L36.0312 300.107L35.3533 303.66L9.15978 298.664L7.39946 307.891Z" fill="white"/>
<path d="M48.4657 201.792L46.9254 205.065C45.8927 204.816 44.9062 204.765 43.9657 204.914C43.0293 205.053 42.1577 205.353 41.3507 205.811C40.5391 206.257 39.8155 206.835 39.1799 207.547C38.5443 208.258 38.0153 209.062 37.593 209.96C36.8228 211.596 36.5387 213.274 36.7406 214.992C36.9466 216.701 37.6705 218.326 38.9123 219.867C40.1582 221.399 41.9515 222.716 44.2921 223.817C46.6328 224.918 48.7904 225.461 50.7651 225.444C52.7439 225.419 54.4575 224.941 55.9057 224.01C57.3581 223.071 58.4694 221.783 59.2395 220.146C59.6619 219.248 59.9445 218.328 60.0873 217.385C60.2302 216.442 60.219 215.518 60.0539 214.612C59.8841 213.694 59.5546 212.83 59.0655 212.019C58.5716 211.196 57.9039 210.468 57.0623 209.835L58.6026 206.562C59.8682 207.458 60.8933 208.489 61.678 209.653C62.4627 210.818 63.0101 212.064 63.3202 213.393C63.6215 214.717 63.6865 216.074 63.5152 217.466C63.348 218.849 62.9435 220.223 62.3017 221.587C61.2169 223.892 59.6889 225.677 57.7179 226.943C55.7469 228.208 53.4808 228.866 50.9197 228.919C48.3586 228.971 45.6525 228.326 42.8015 226.985C39.9505 225.643 37.7289 223.969 36.1367 221.962C34.5445 219.956 33.6076 217.79 33.3259 215.465C33.0443 213.139 33.4459 210.824 34.5308 208.519C35.1726 207.155 35.973 205.968 36.9322 204.957C37.8954 203.938 38.9875 203.125 40.2086 202.517C41.4208 201.905 42.7257 201.53 44.1232 201.393C45.512 201.251 46.9594 201.384 48.4657 201.792Z" fill="white"/>
<path d="M77.2605 192.491L52.0361 176.483L61.6971 161.26L64.4068 162.98L56.6842 175.148L65.2073 180.557L72.4296 169.177L75.1393 170.896L67.917 182.277L76.4893 187.717L84.3369 175.351L87.0466 177.071L77.2605 192.491Z" fill="white"/>
<path d="M92.7705 121.028L115.79 140.071L113.558 142.769L85.1074 140.361L84.9214 140.586L102.995 155.537L100.689 158.325L77.6699 139.282L79.9015 136.584L108.434 138.985L108.62 138.76L90.5017 123.771L92.7705 121.028Z" fill="white"/>
<path d="M109.004 108.713L106.807 106.374L123.14 91.0357L125.337 93.3751L118.489 99.806L136.743 119.245L134.106 121.721L115.852 102.282L109.004 108.713Z" fill="white"/>
<path d="M160.128 99.2729L142.567 75.1034L150.734 69.17C152.622 67.7981 154.407 66.9946 156.087 66.7595C157.762 66.5165 159.296 66.7421 160.69 67.4363C162.084 68.1305 163.298 69.1896 164.333 70.6137C165.367 72.0377 165.993 73.512 166.212 75.0364C166.43 76.5609 166.165 78.0751 165.419 79.5791C164.667 81.0752 163.354 82.5035 161.482 83.864L154.873 88.6656L152.952 86.0221L159.467 81.289C160.757 80.3516 161.659 79.4082 162.171 78.459C162.691 77.504 162.877 76.5517 162.728 75.6021C162.581 74.639 162.156 73.6735 161.453 72.7058C160.75 71.7381 159.954 71.0238 159.067 70.5629C158.179 70.102 157.195 69.9635 156.114 70.1475C155.028 70.3236 153.832 70.8861 152.526 71.8349L147.38 75.5733L163.054 97.1465L160.128 99.2729ZM163.616 80.1499L177.452 86.6858L174.053 89.1552L160.311 82.5507L163.616 80.1499Z" fill="white"/>
<path d="M190.528 44.0918L204.92 70.2716L201.75 72.0144L187.357 45.8347L190.528 44.0918Z" fill="white"/>
<path d="M245.665 29.4515L242.301 30.7833C241.719 29.8946 241.034 29.1825 240.247 28.6469C239.469 28.1079 238.629 27.7293 237.727 27.5112C236.83 27.2805 235.906 27.2068 234.956 27.2902C234.006 27.3735 233.07 27.5978 232.147 27.9629C230.466 28.6288 229.11 29.657 228.082 31.0475C227.062 32.4345 226.477 34.1146 226.327 36.0879C226.187 38.0577 226.593 40.2451 227.545 42.6503C228.497 45.0555 229.699 46.9279 231.15 48.2676C232.61 49.6036 234.186 50.4282 235.879 50.7411C237.581 51.0505 239.272 50.8722 240.954 50.2064C241.877 49.8412 242.713 49.3638 243.462 48.7741C244.212 48.1844 244.837 47.503 245.336 46.7301C245.841 45.9445 246.192 45.0888 246.39 44.1631C246.594 43.2247 246.606 42.237 246.425 41.1997L249.789 39.868C250.098 41.3878 250.14 42.8408 249.914 44.2269C249.689 45.6131 249.235 46.8964 248.552 48.0768C247.865 49.2482 246.983 50.2826 245.905 51.18C244.837 52.0738 243.602 52.7981 242.2 53.353C239.831 54.2909 237.495 54.5464 235.192 54.1193C232.89 53.6923 230.787 52.6212 228.884 50.9061C226.981 49.1911 225.45 46.8687 224.29 43.9391C223.13 41.0095 222.657 38.2683 222.87 35.7155C223.083 33.1627 223.882 30.9425 225.269 29.0548C226.655 27.1671 228.533 25.7543 230.902 24.8163C232.303 24.2614 233.699 23.944 235.09 23.864C236.49 23.7804 237.843 23.935 239.149 24.3279C240.452 24.7117 241.659 25.3318 242.772 26.1881C243.882 27.0353 244.846 28.1231 245.665 29.4515Z" fill="white"/>
<path d="M325.276 32.262C324.562 32.3522 323.917 32.1739 323.341 31.7272C322.765 31.2804 322.432 30.7 322.342 29.9861C322.252 29.2721 322.43 28.6271 322.877 28.0512C323.323 27.4752 323.904 27.1421 324.618 27.052C325.332 26.9618 325.977 27.14 326.553 27.5868C327.129 28.0336 327.462 28.6139 327.552 29.3279C327.612 29.8007 327.546 30.2501 327.355 30.6761C327.173 31.1009 326.9 31.459 326.535 31.7501C326.178 32.0304 325.758 32.2011 325.276 32.262Z" fill="white"/>
</svg>
